<svg xmlns="http://www.w3.org/2000/svg" viewBox="0 0 114.04 256.83"><defs><style>.cls-1,.cls-6{fill:#f9c4db;}.cls-1{stroke:#f9c4db;}.cls-1,.cls-2{stroke-miterlimit:10;stroke-width:3px;}.cls-2{fill:none;stroke:#231f20;}.cls-3{fill:#010101;}.cls-4{fill:#bcbec0;}.cls-5{fill:#e6e7e8;}.cls-7{fill:#231f20;}.cls-8{fill:#d1d3d4;}</style></defs><title>Asset 1</title><g id="Layer_2" data-name="Layer 2"><g id="Layer_1-2" data-name="Layer 1"><path class="cls-1" d="M107.59,180.92a8,8,0,0,1-8,8,3.37,3.37,0,0,1-.67,0c0-.93,0-1.87,0-2.85h-.31a25.23,25.23,0,0,0,2-7.77c.89-.22,2.23-.67,3.12-.89s1.76-.49,2.54-.73A7.85,7.85,0,0,1,107.59,180.92Z"/><path class="cls-2" d="M96.49,188.29a4.87,4.87,0,0,0,.73.27,6.3,6.3,0,0,0,1.71.31"/><path class="cls-1" d="M18,188.49a8,8,0,0,1-10.55-7.57,7.91,7.91,0,0,1,1.45-4.58c.82.27,1.74.53,2.72.8A19.6,19.6,0,0,1,15,178.25,23.37,23.37,0,0,0,18,188.49Z"/><path class="cls-2" d="M18.6,188.29l-.22.09a2,2,0,0,1-.33.11"/><path class="cls-3" d="M49.71,90.57v5.79a4.9,4.9,0,1,1-9.79,0V90.57a4.9,4.9,0,1,1,9.79,0Z"/><path class="cls-3" d="M74,90.57v5.79a4.9,4.9,0,1,1-9.79,0V90.57a4.9,4.9,0,1,1,9.79,0Z"/><path class="cls-3" d="M65.51,110.38c0,.22-3.34,1.78-8.68,1.78a22,22,0,0,1-8.46-1.78,2.34,2.34,0,0,1-.89-2.89,2,2,0,0,1,2.89-.89,13.29,13.29,0,0,0,6.45,1.34,15,15,0,0,0,6.68-1.34,2.14,2.14,0,0,1,2,3.78Z"/><path class="cls-3" d="M92.66,111.94a55.09,55.09,0,0,0,15.13-21.59l.67-1.34c4.67-10.68,8.9-35.61,1.78-51.63C101.56,17.58,76.41,8,68,6.45a24.44,24.44,0,0,1-2.45-.67L66.18,0,62.39,4.67,54.83,0l2.89,5.34S21,6,6.09,32.94C-4.37,51.85.53,81.45,6.76,91.69A52.21,52.21,0,0,0,22.56,113a46.85,46.85,0,0,0-8.68,10C7,134.19,3.64,149.54,3.64,171.58c0,2.65,2.09,3.76,5.3,4.76.82.27,1.74.53,2.72.8A19.6,19.6,0,0,1,15,178.25a23.37,23.37,0,0,0,3,10.24,2.84,2.84,0,0,0,.33.56,17.38,17.38,0,0,0,6.83,6.08c7,3.61,16.53,3.61,25.39,3.61h8.52c2.27,0,4.52,0,6.7,0,10.57-.16,19.94-1,26.33-5.16a16.6,16.6,0,0,0,5.07-5A15.55,15.55,0,0,0,98.64,186a25.23,25.23,0,0,0,2-7.77c.89-.22,2.23-.67,3.12-.89s1.76-.49,2.54-.73c3.29-1,5.47-2.14,5.47-4.83C111.57,147.32,108.68,124.4,92.66,111.94ZM9.65,75c2.23-2.45,5.12-5.34,6.68-7.79,1.78-2.67,3.34-6.9,4.45-10,7.79,7.12,20.7,16.91,33.38,18.92a147.59,147.59,0,0,0,35.61,1.34l-6.63-4.65c.89.29,15.15,4.87,17.54,4.87a15.49,15.49,0,0,0,3.56-.45A47.6,47.6,0,0,1,9.65,75Zm47.18,65c-6.23,0-12-8.68-12.91-16.47a50.55,50.55,0,0,0,13.13,1.56A50,50,0,0,0,70,123.51a25.08,25.08,0,0,1-4.56,11.24C63.06,137.86,60.06,140,56.83,140Zm4,25.81a4,4,0,0,1-8,0,4.28,4.28,0,0,1,3.34-4h1.11A4,4,0,0,1,60.84,165.79Zm40.95,4.9c-1.11.22-2.23.67-3.12.89a.82.82,0,0,0-.22-.67l-5.12-29.15s.44,12,.89,19.58c.22,3.12.22,6,.22,8.46v5.56c0,.22-.22.45-.22.67-.89,14.69-11.79,15.8-34,15.8H50.82c-13.4,0-21.7-.73-25.79-5.74l-.11-.11c-1.85-2.31-2.83-5.52-3-9.95a1.68,1.68,0,0,0-.22-.89V174l-.22-4.45c0-2.45,0-5.34.22-8.46.45-7.57.89-19.58.89-19.58l-5.34,29.82a29.12,29.12,0,0,0-3.34-1.11c-.89-.22-2.23-.67-3.34-.89.22-26.48,5.79-43.62,18-52.74a53,53,0,0,0,8.68,4.45h.22c0,10.46,6.9,22.25,16.25,24.7v9.12a11.33,11.33,0,0,0-7.57,10.46,10.9,10.9,0,1,0,14.24-10.46v-9.12c9.35-2.45,16.25-14.24,16.25-24.7a44.85,44.85,0,0,0,10.24-5.34c14,9.57,17.8,28.26,18,53.41A6.86,6.86,0,0,1,101.78,170.69Z"/><path class="cls-4" d="M70,123.51a25.08,25.08,0,0,1-4.56,11.24c-2.34,3.12-5.34,5.23-8.57,5.23-6.23,0-12-8.68-12.91-16.47a50.55,50.55,0,0,0,13.13,1.56A50,50,0,0,0,70,123.51Z"/><path class="cls-5" d="M104.9,169.13a6.86,6.86,0,0,1-3.12,1.56c-1.11.22-2.23.67-3.12.89a.82.82,0,0,0-.22-.67l-5.12-29.15s.44,12,.89,19.58c.22,3.12.22,6,.22,8.46v5.56c0,.22-.22.45-.22.67-.89,14.69-11.79,15.8-34,15.8H50.82c-13.4,0-21.7-.73-25.79-5.74l-.11-.11c-1.85-2.31-2.83-5.52-3-9.95a1.68,1.68,0,0,0-.22-.89V174l-.22-4.45c0-2.45,0-5.34.22-8.46.45-7.57.89-19.58.89-19.58l-5.34,29.82a29.12,29.12,0,0,0-3.34-1.11c-.89-.22-2.23-.67-3.34-.89.22-26.48,5.79-43.62,18-52.74a53,53,0,0,0,8.68,4.45h.22c0,10.46,6.9,22.25,16.25,24.7v9.12a11.33,11.33,0,0,0-7.57,10.46,10.9,10.9,0,1,0,14.24-10.46v-9.12c9.35-2.45,16.25-14.24,16.25-24.7a44.85,44.85,0,0,0,10.24-5.34C100.89,125.29,104.68,144,104.9,169.13Z"/><path class="cls-6" d="M100.67,77.67c-2.38,0-16.65-4.58-17.54-4.87l6.63,4.65a147.59,147.59,0,0,1-35.61-1.34c-12.68-2-25.59-11.79-33.38-18.92-1.11,3.12-2.67,7.34-4.45,10-1.56,2.45-4.45,5.34-6.68,7.79a47.6,47.6,0,0,0,94.58,2.23A15.49,15.49,0,0,1,100.67,77.67ZM39.92,96.36V90.57a4.9,4.9,0,1,1,9.79,0v5.79a4.9,4.9,0,1,1-9.79,0Zm25.59,14c0,.22-3.34,1.78-8.68,1.78a22,22,0,0,1-8.46-1.78,2.34,2.34,0,0,1-.89-2.89,2,2,0,0,1,2.89-.89,13.29,13.29,0,0,0,6.45,1.34,15,15,0,0,0,6.68-1.34,2.14,2.14,0,0,1,2,3.78Zm8.46-14a4.9,4.9,0,1,1-9.79,0V90.57a4.9,4.9,0,1,1,9.79,0Z"/><path class="cls-7" d="M57.21,241.88c1,3.25,2.11,6.94-.27,10.17-2.51,3.4-7.9,4.78-18.56,4.78-11.51,0-15.62-.85-17.58-3.67-1.78-2.54-.73-5.41.2-7.92a19,19,0,0,0,1.56-8.68c-.33-3.72-.82-7.41-1.34-11.33A280.74,280.74,0,0,1,18.38,189c0-1,0-2,0-3l6.56,0H25v.11c0,3.23.09,6.23.18,9a283,283,0,0,0,2.65,29.24c.29,2.29.58,4.5.82,6.7.2,1.65.38,3.27.53,4.92a25.51,25.51,0,0,1-2,11.55c-.2.58-.47,1.31-.62,1.82,1.18.38,4.18.8,11.75.8,11.08,0,12.93-1.71,13.2-2.07.38-.53-.31-2.76-.76-4.23a23.55,23.55,0,0,1-1.36-7.12c0-2-.11-3.56-.22-5.21,0-.13,0-.27,0-.4-.38-5.05-.71-11.08,2-32.4q.23-1.7.47-3.54l6.63.89c-.13.91-.24,1.8-.36,2.65-2.89,21.9-2.47,27.44-2.11,32.31.13,1.69.24,3.45.24,5.74A17.55,17.55,0,0,0,57.21,241.88Z"/><path class="cls-8" d="M49.22,231.13c-4.47.11-14.2,0-20.54-.07-.24-2.2-.53-4.41-.82-6.7a283,283,0,0,1-2.65-29.24c7,3.61,16.53,3.61,25.39,3.61h.67C48.51,220,48.84,226.08,49.22,231.13Z"/><path class="cls-2" d="M51.58,231a17.85,17.85,0,0,1-2.36.16"/><path class="cls-2" d="M28.68,231.06l-6-.09"/><path class="cls-7" d="M94.75,236.56a19,19,0,0,0,1.58,8.68c.91,2.51,2,5.39.2,7.92-2,2.83-6.08,3.67-17.58,3.67-10.68,0-16.07-1.38-18.58-4.78-2.38-3.23-1.25-6.92-.24-10.17a18.32,18.32,0,0,0,1.07-5.1c0-6.81-1.54-29.91-2.07-38.05-.11-1.76-.18-2.83-.18-2.87l6.65-.45c0,.24.09,1.42.22,3.27.45,6.92,1.47,23.05,1.89,32.62.09,2.23.16,4.12.16,5.43a22.89,22.89,0,0,1-1.38,7.12c-.45,1.47-1.13,3.69-.73,4.23.24.36,2.09,2.07,13.2,2.07,7.57,0,10.57-.42,11.75-.8-.16-.51-.42-1.25-.65-1.82a25.51,25.51,0,0,1-2-11.55c.16-1.65.33-3.25.51-4.87.27-2.23.56-4.45.87-6.74a281.43,281.43,0,0,0,2.67-30.84c.07-2.38.11-4.87.13-7.54l6.36,0H99c0,1,0,1.91,0,2.85a282.59,282.59,0,0,1-2.85,36.36C95.57,229.15,95.08,232.84,94.75,236.56Z"/><path class="cls-8" d="M92.15,193.52a281.43,281.43,0,0,1-2.67,30.84c-.31,2.29-.6,4.52-.87,6.74-6.48.13-16.45.29-20.9.2-.42-9.57-1.45-25.7-1.89-32.62C76.39,198.53,85.76,197.68,92.15,193.52Z"/><path class="cls-2" d="M67.71,231.31a13.85,13.85,0,0,1-2.23-.13"/><path class="cls-2" d="M94.59,231s-2.47.07-6,.13"/><path class="cls-2" d="M22.72,231s27.48.46,28.86,0"/><path class="cls-2" d="M94.59,231s-27.72.66-29.1.2"/></g></g></svg>